<svg width="18" height="18" viewBox="0 0 18 18" fill="none" xmlns="http://www.w3.org/2000/svg">
<path d="M18 5.0625V15.1875C18 16.1191 17.2441 16.875 16.3125 16.875H1.6875C0.755859 16.875 0 16.1191 0 15.1875V5.0625C0 4.13086 0.755859 3.375 1.6875 3.375H4.78125L5.21367 2.21836C5.45977 1.56094 6.08906 1.125 6.79219 1.125H11.2043C11.9074 1.125 12.5367 1.56094 12.7828 2.21836L13.2188 3.375H16.3125C17.2441 3.375 18 4.13086 18 5.0625ZM13.2188 10.125C13.2188 7.79766 11.3273 5.90625 9 5.90625C6.67266 5.90625 4.78125 7.79766 4.78125 10.125C4.78125 12.4523 6.67266 14.3438 9 14.3438C11.3273 14.3438 13.2188 12.4523 13.2188 10.125ZM12.0938 10.125C12.0938 11.8301 10.7051 13.2188 9 13.2188C7.29492 13.2188 5.90625 11.8301 5.90625 10.125C5.90625 8.41992 7.29492 7.03125 9 7.03125C10.7051 7.03125 12.0938 8.41992 12.0938 10.125Z" fill="white"/>
</svg>
