<svg width="14" height="14" viewBox="0 0 14 14" fill="none" xmlns="http://www.w3.org/2000/svg">
<path d="M6.79369 1.10252e-05C8.60573 0.00326493 10.251 0.71732 11.4656 1.87812L12.4422 0.901535C12.8556 0.488124 13.5625 0.780921 13.5625 1.36559V5.03126C13.5625 5.3937 13.2687 5.68751 12.9062 5.68751H9.24057C8.65591 5.68751 8.36311 4.98065 8.77652 4.56721L9.91813 3.42561C9.07419 2.6354 7.98216 2.19768 6.82199 2.18767C4.29548 2.16585 2.16582 4.21048 2.18766 6.82085C2.20839 9.29713 4.21597 11.375 6.78125 11.375C7.90582 11.375 8.96867 10.9737 9.80626 10.2387C9.93595 10.1249 10.1318 10.1319 10.2538 10.2538L11.3383 11.3383C11.4716 11.4716 11.465 11.6888 11.3252 11.815C10.1227 12.9011 8.52923 13.5625 6.78125 13.5625C3.03609 13.5625 2.73439e-05 10.5265 1.83683e-10 6.78132C-2.73436e-05 3.04044 3.05282 -0.00668819 6.79369 1.10252e-05Z" fill="white"/>
</svg>
