<svg width="68" height="60" viewBox="0 0 68 60" fill="none" xmlns="http://www.w3.org/2000/svg">
<path d="M66.7403 51.564C68.9034 55.3133 66.1882 60 61.868 60H5.63136C1.30281 60 -1.39977 55.3061 0.759057 51.564L28.8777 2.81074C31.0418 -0.940312 36.4621 -0.933515 38.6223 2.81074L66.7403 51.564ZM33.75 41.4844C30.7729 41.4844 28.3594 43.8979 28.3594 46.875C28.3594 49.8521 30.7729 52.2656 33.75 52.2656C36.7272 52.2656 39.1407 49.8521 39.1407 46.875C39.1407 43.8979 36.7272 41.4844 33.75 41.4844ZM28.6321 22.1079L29.5014 38.0454C29.5421 38.7912 30.1587 39.375 30.9055 39.375H36.5945C37.3414 39.375 37.958 38.7912 37.9987 38.0454L38.868 22.1079C38.9119 21.3023 38.2705 20.625 37.4638 20.625H30.0361C29.2294 20.625 28.5882 21.3023 28.6321 22.1079Z" fill="#9AA0A6"/>
</svg>
